<svg width="150" height="150" viewBox="0 0 150 150" fill="none" xmlns="http://www.w3.org/2000/svg">
<circle cx="75" cy="75" r="74.5" fill="white" stroke="#0066FF"/>
<path d="M102.916 71.026L102.916 71.0251C102.351 70.2944 101.43 69.797 100.315 69.2123L100.547 68.7694M102.916 71.026L104.285 77.0098C104.536 79.7679 104.568 82.5964 104.377 84.4007C103.971 88.1914 103.21 90.4745 103.185 90.5492C103.097 90.8084 102.935 91.0399 102.716 91.2155C102.496 91.3913 102.229 91.5035 101.944 91.5377L101.504 91.5906V92.0342V92.0488C101.504 92.4292 101.349 92.7966 101.069 93.0696C100.788 93.343 100.405 93.4988 100.003 93.4988H93.0023C92.6003 93.4988 92.2173 93.343 91.9369 93.0696C91.6568 92.7966 91.502 92.4292 91.502 92.0488V91.5578L91.0111 91.5489C90.0739 91.5317 89.3997 91.3691 88.6457 91.1805C87.4687 90.8713 86.2656 90.6656 85.051 90.5659C81.2137 90.2098 77.2387 90.0875 74.9959 90.0875C72.7062 90.0875 68.8988 90.2099 65.0684 90.5659C63.8583 90.6654 62.6596 90.8703 61.4869 91.1782C60.6986 91.3767 60.0014 91.55 58.9923 91.55H58.4923V92.05C58.4923 92.4304 58.3374 92.7979 58.0574 93.0708C57.7769 93.3442 57.3939 93.5 56.992 93.5H49.9909C49.589 93.5 49.206 93.3442 48.9255 93.0708C48.6455 92.7979 48.4906 92.4304 48.4906 92.05V92.0256V91.5832L48.0515 91.5293C47.7674 91.4945 47.5006 91.3819 47.2818 91.2063C47.063 91.0307 46.9015 90.7996 46.8141 90.5408C46.79 90.4695 46.0289 88.1856 45.6224 84.392C45.4309 82.5891 45.466 79.7559 45.7144 77.0022C46.1524 72.2229 46.8572 71.3109 47.071 71.0342C47.0759 71.0279 47.0805 71.0219 47.0849 71.0162L46.6881 70.7122L47.0842 71.0171C47.643 70.2911 48.5665 69.7948 49.6837 69.2052C49.8121 69.1386 49.9242 69.0433 50.0105 68.9259C50.0974 68.8076 50.1556 68.6703 50.1795 68.5248C50.2034 68.3791 50.1923 68.2302 50.1471 68.0898C50.102 67.9496 50.0244 67.8226 49.9215 67.7184L49.9216 67.7184L49.9158 67.7127C49.765 67.565 49.6495 67.3881 49.5764 67.1945C49.5038 67.0021 49.4745 66.7973 49.4902 66.5936C49.5258 66.2283 49.7007 65.8865 49.9844 65.6366C50.2694 65.3856 50.6431 65.2465 51.0316 65.25V65.25H51.0361H52.9886C53.0526 65.2504 53.1164 65.2545 53.1799 65.2622L53.2978 65.2765L53.4095 65.2363C53.4312 65.2285 53.4537 65.2229 53.4769 65.2198L53.7349 65.1844L53.8538 64.9526L53.8638 64.9331L53.8639 64.9332L53.8688 64.9232C55.0347 62.5207 56.5521 59.4292 59.6516 57.9252C61.9969 56.7886 65.3764 56.176 68.4319 55.8523C71.4726 55.5302 74.13 55.5 74.9959 55.5C75.8617 55.5 78.5191 55.5302 81.5605 55.8528C84.6167 56.1769 87.9977 56.7903 90.3461 57.9288C93.4458 59.4328 94.9632 62.5244 96.1292 64.9269L96.2334 65.1415L96.4658 65.1956C96.4983 65.2031 96.53 65.2135 96.5606 65.2264L96.6833 65.2783L96.8156 65.2622C96.879 65.2545 96.9429 65.2504 97.0068 65.25L98.9556 65.25L98.9601 65.25C99.3487 65.2465 99.7223 65.3856 100.007 65.6366C100.292 65.8869 100.466 66.2294 100.502 66.5954C100.519 66.8002 100.491 67.0064 100.419 67.2003C100.347 67.3948 100.232 67.5728 100.082 67.7216L100.082 67.7216L100.078 67.7258C99.9748 67.8299 99.8972 67.9569 99.8521 68.0971C99.8069 68.2375 99.7958 68.3865 99.8197 68.5321C99.8436 68.6776 99.9018 68.8149 99.9887 68.9332C100.076 69.0514 100.189 69.1471 100.318 69.2139L100.547 68.7694M102.916 71.026C102.92 71.031 102.924 71.0361 102.928 71.0415M102.916 71.026L102.928 71.0415M100.547 68.7694C100.485 68.7377 100.432 68.6923 100.392 68.6371C100.351 68.5818 100.324 68.5181 100.313 68.451C100.302 68.3839 100.307 68.3151 100.328 68.2503C100.349 68.1854 100.385 68.1262 100.433 68.0772L103.311 70.7194C102.667 69.8858 101.637 69.341 100.547 68.7694ZM56.4534 66.4268C56.3423 66.6556 56.2929 66.9091 56.3105 67.1629C56.3282 67.4167 56.4122 67.6609 56.5535 67.8723C56.6947 68.0837 56.8881 68.2548 57.1143 68.3705C57.3403 68.4863 57.5922 68.5433 57.8461 68.5368L57.8465 68.5368C59.1637 68.5021 60.9332 68.4426 62.872 68.3775C67.0825 68.236 72.0909 68.0677 74.9959 68.0677C77.9343 68.0677 83.0259 68.2359 87.2639 68.3758C89.1446 68.4379 90.8571 68.4944 92.1389 68.5283L92.1394 68.5283C92.3932 68.5347 92.6451 68.4778 92.8712 68.362C93.0973 68.2462 93.2908 68.0751 93.432 67.8638C93.5733 67.6524 93.6573 67.4082 93.6749 67.1544C93.6925 66.9016 93.6435 66.6491 93.5334 66.421C93.5329 66.4201 93.5325 66.4192 93.532 66.4182L93.4093 66.1585L93.4071 66.1538L93.3993 66.1378C92.9018 65.113 92.3522 63.9807 91.666 62.9808C90.9746 61.9735 90.1208 61.0636 88.995 60.5172C87.4492 59.7645 85.1235 59.2386 82.627 58.8982C80.1171 58.556 77.385 58.3951 74.9959 58.3951C72.6066 58.3951 69.8744 58.5572 67.3646 58.9C64.8678 59.241 62.5422 59.7671 60.9968 60.5172C59.8712 61.0634 59.0161 61.9728 58.324 62.9801C57.6333 63.9854 57.0817 65.1242 56.5842 66.1548L56.584 66.1547L56.5787 66.1665C56.5524 66.2249 56.5252 66.2802 56.4944 66.3429C56.4815 66.3693 56.4679 66.397 56.4534 66.4268ZM56.4534 66.4268L56.9032 66.6452M56.4534 66.4268C56.4534 66.4268 56.4534 66.4269 56.4533 66.4269L56.9032 66.6452M56.9032 66.6452C56.9152 66.6203 56.9275 66.5954 56.9398 66.5704C56.9721 66.5046 57.0046 66.4384 57.0345 66.3722L93.0823 66.6366C93.1554 66.7872 93.1877 66.9535 93.1761 67.1197C93.1646 67.2859 93.1095 67.4464 93.0163 67.586C92.923 67.7256 92.7946 67.8395 92.6433 67.917C92.4921 67.9944 92.3229 68.0328 92.1521 68.0284C90.8779 67.9948 89.1713 67.9385 87.2947 67.8765C83.0529 67.7365 77.9428 67.5677 74.9959 67.5677C72.0825 67.5677 67.0547 67.7367 62.84 67.8782C60.9055 67.9432 59.1422 68.0025 57.8333 68.037C57.6625 68.0413 57.4934 68.0029 57.3421 67.9255C57.1909 67.848 57.0625 67.7341 56.9692 67.5945C56.8759 67.455 56.8209 67.2944 56.8093 67.1282C56.7978 66.962 56.8301 66.7957 56.9032 66.6452ZM49.792 72.0557L49.793 72.0555C51.4346 71.8093 52.4346 72.0979 54.7129 72.7555C54.8689 72.8005 55.0309 72.8472 55.1995 72.8957C55.1996 72.8957 55.1996 72.8957 55.1997 72.8957L55.0617 73.3763L49.792 72.0557ZM49.792 72.0557C49.4198 72.1123 49.1094 72.2338 48.8847 72.4712C48.6655 72.7029 48.5922 72.9805 48.5493 73.1831C48.4384 73.701 48.4246 74.2096 48.6115 75.0425C48.7831 75.819 49.3339 76.3038 49.9705 76.5816C50.5964 76.8548 51.3453 76.9499 52.0441 76.95M49.792 72.0557L52.0441 76.95M102.928 71.0415C103.138 71.3096 103.847 72.2161 104.285 77.0096L102.928 71.0415ZM52.0441 76.95C54.2272 76.954 56.4086 76.8286 58.5761 76.5746M52.0441 76.95L58.5761 76.5746M58.5761 76.5746C59.0665 76.531 59.3649 76.1547 59.4662 75.8092C59.567 75.466 59.5216 74.9794 59.1185 74.6862L58.5761 76.5746ZM78.9265 86.6936C82.2123 86.7031 84.3526 86.7092 85.7025 86.6165V86.6409L86.2614 86.5746C87.2029 86.463 88.2451 86.0073 88.8858 85.3315C89.2109 84.9887 89.4616 84.5571 89.4978 84.0582C89.5348 83.5472 89.341 83.0477 88.9327 82.5951C88.6877 82.3199 88.3356 82.0867 87.9304 81.8843C87.5185 81.6786 87.0208 81.4897 86.4577 81.3166C85.3314 80.9703 83.9049 80.6757 82.2965 80.4414C79.0933 79.9749 77.9053 79.85 75.0209 79.85C72.3782 79.85 71.0453 80.0199 68.4995 80.3443C68.2624 80.3745 68.0148 80.4061 67.7546 80.4389C66.2076 80.6345 64.8391 80.9078 63.7238 81.2541C62.6209 81.5965 61.7147 82.0255 61.1401 82.5622L61.1382 82.564C60.6856 82.991 60.4599 83.4874 60.4927 84.0123C60.5243 84.5173 60.7899 84.9556 61.123 85.3005C61.7823 85.9829 62.8603 86.4644 63.8103 86.5678C65.0992 86.711 67.3622 86.7045 71.1403 86.6936C72.292 86.6903 73.5846 86.6866 75.0334 86.6866C76.482 86.6866 77.7747 86.6903 78.9265 86.6936ZM91.2885 76.5731C93.4986 76.8239 95.7218 76.9493 97.9467 76.9488H97.9468C98.6428 76.9488 99.3928 76.855 100.02 76.5826C100.657 76.3059 101.21 75.8214 101.38 75.0422L101.38 75.0422C101.521 74.4061 101.545 73.7505 101.45 73.1063C101.428 72.9126 101.348 72.6985 101.216 72.5164C101.078 72.3245 100.855 72.1303 100.537 72.0689L100.537 72.0688C99.0838 71.7879 97.4359 72.1351 94.792 72.8945C92.9894 73.4121 91.6412 74.0961 90.864 74.6918L90.8639 74.692C90.4842 74.9833 90.4021 75.4351 90.4767 75.7848C90.5459 76.1093 90.8014 76.5248 91.2885 76.5731Z" fill="#0066FF" stroke="#0066FF"/>
</svg>
